<mxfile host="app.diagrams.net" modified="2023-11-20T15:16:50.286Z" agent="Mozilla/5.0 (Windows NT 10.0; Win64; x64) AppleWebKit/537.36 (KHTML, like Gecko) Chrome/119.0.0.0 Safari/537.36" etag="9DYapP8wAzMdKB0o3jCU" version="22.1.3" type="device">
  <diagram id="-91uuqS3HIOEWp4eatK5" name="Page-1">
    <mxGraphModel dx="463" dy="566" grid="1" gridSize="10" guides="1" tooltips="1" connect="1" arrows="1" fold="1" page="1" pageScale="1" pageWidth="827" pageHeight="1169" math="0" shadow="0">
      <root>
        <mxCell id="0" />
        <mxCell id="1" parent="0" />
        <mxCell id="-Nn8rw7bGIWzdxT51rKh-214" value="FactGrades     " style="swimlane;childLayout=stackLayout;horizontal=1;startSize=30;horizontalStack=0;rounded=1;fontSize=14;fontStyle=0;strokeWidth=2;resizeParent=0;resizeLast=1;shadow=0;dashed=0;align=center;fillColor=#0050ef;fontColor=#ffffff;strokeColor=#001DBC;" parent="1" vertex="1">
          <mxGeometry x="1535.22" y="902.24" width="160" height="167.76" as="geometry" />
        </mxCell>
        <mxCell id="-Nn8rw7bGIWzdxT51rKh-215" value="*GradeID&#xa;*StudentID &#xa;*ClassID &#xa;*TeacherID&#xa;*SubjectID &#xa;*DateId&#xa;&#xa;GradeValue" style="align=left;strokeColor=none;fillColor=none;spacingLeft=4;fontSize=12;verticalAlign=top;resizable=0;rotatable=0;part=1;opacity=40;fontStyle=1" parent="-Nn8rw7bGIWzdxT51rKh-214" vertex="1">
          <mxGeometry y="30" width="160" height="137.76" as="geometry" />
        </mxCell>
        <mxCell id="-Nn8rw7bGIWzdxT51rKh-216" value="DimTeacher " style="swimlane;childLayout=stackLayout;horizontal=1;startSize=30;horizontalStack=0;rounded=1;fontSize=14;fontStyle=0;strokeWidth=2;resizeParent=0;resizeLast=1;shadow=0;dashed=0;align=center;fillColor=#008a00;fontColor=#ffffff;strokeColor=#005700;" parent="1" vertex="1">
          <mxGeometry x="1830.22" y="1169.0000000000002" width="160" height="105.84" as="geometry" />
        </mxCell>
        <mxCell id="-Nn8rw7bGIWzdxT51rKh-217" value="*TeacherID&#xa;&#xa;Name&#xa;Surname &#xa;" style="align=left;strokeColor=none;fillColor=none;spacingLeft=4;fontSize=12;verticalAlign=top;resizable=0;rotatable=0;part=1;opacity=40;fontStyle=0" parent="-Nn8rw7bGIWzdxT51rKh-216" vertex="1">
          <mxGeometry y="30" width="160" height="75.84" as="geometry" />
        </mxCell>
        <mxCell id="-Nn8rw7bGIWzdxT51rKh-218" value="DimClass " style="swimlane;childLayout=stackLayout;horizontal=1;startSize=30;horizontalStack=0;rounded=1;fontSize=14;fontStyle=0;strokeWidth=2;resizeParent=0;resizeLast=1;shadow=0;dashed=0;align=center;fillColor=#008a00;fontColor=#ffffff;strokeColor=#005700;" parent="1" vertex="1">
          <mxGeometry x="1820.2199999999998" y="679.1599999999999" width="160" height="140" as="geometry" />
        </mxCell>
        <mxCell id="-Nn8rw7bGIWzdxT51rKh-219" value="*ClassID&#xa;&#xa;ClassNumber &#xa;AlphabeticIdentifier &#xa;" style="align=left;strokeColor=none;fillColor=none;spacingLeft=4;fontSize=12;verticalAlign=top;resizable=0;rotatable=0;part=1;opacity=40;fontStyle=0" parent="-Nn8rw7bGIWzdxT51rKh-218" vertex="1">
          <mxGeometry y="30" width="160" height="110" as="geometry" />
        </mxCell>
        <mxCell id="-Nn8rw7bGIWzdxT51rKh-220" value="DimDate" style="swimlane;childLayout=stackLayout;horizontal=1;startSize=30;horizontalStack=0;rounded=1;fontSize=14;fontStyle=0;strokeWidth=2;resizeParent=0;resizeLast=1;shadow=0;dashed=0;align=center;fillColor=#008a00;fontColor=#ffffff;strokeColor=#005700;" parent="1" vertex="1">
          <mxGeometry x="1230" y="1168.9999999999998" width="160" height="110.84" as="geometry" />
        </mxCell>
        <mxCell id="-Nn8rw7bGIWzdxT51rKh-221" value="*DateId&#xa;&#xa;Day&#xa;Month&#xa;Year" style="align=left;strokeColor=none;fillColor=none;spacingLeft=4;fontSize=12;verticalAlign=top;resizable=0;rotatable=0;part=1;opacity=40;fontStyle=0" parent="-Nn8rw7bGIWzdxT51rKh-220" vertex="1">
          <mxGeometry y="30" width="160" height="80.84" as="geometry" />
        </mxCell>
        <mxCell id="-Nn8rw7bGIWzdxT51rKh-222" value="DimStudent " style="swimlane;childLayout=stackLayout;horizontal=1;startSize=30;horizontalStack=0;rounded=1;fontSize=14;fontStyle=0;strokeWidth=2;resizeParent=0;resizeLast=1;shadow=0;dashed=0;align=center;fillColor=#008a00;fontColor=#ffffff;strokeColor=#005700;" parent="1" vertex="1">
          <mxGeometry x="1250.22" y="679.1599999999999" width="160" height="120" as="geometry" />
        </mxCell>
        <mxCell id="-Nn8rw7bGIWzdxT51rKh-223" value="*StudentID &#xa;*ClassId&#xa;Name &#xa;Surname &#xa;DateOfBirth" style="align=left;strokeColor=none;fillColor=none;spacingLeft=4;fontSize=12;verticalAlign=top;resizable=0;rotatable=0;part=1;opacity=40;fontStyle=0" parent="-Nn8rw7bGIWzdxT51rKh-222" vertex="1">
          <mxGeometry y="30" width="160" height="90" as="geometry" />
        </mxCell>
        <mxCell id="-Nn8rw7bGIWzdxT51rKh-251" value="" style="endArrow=none;html=1;rounded=0;fontSize=15;entryX=0;entryY=1;entryDx=0;entryDy=0;exitX=1;exitY=0;exitDx=0;exitDy=0;" parent="1" source="-Nn8rw7bGIWzdxT51rKh-220" target="-Nn8rw7bGIWzdxT51rKh-215" edge="1">
          <mxGeometry width="50" height="50" relative="1" as="geometry">
            <mxPoint x="1447.56" y="1129.1599999999999" as="sourcePoint" />
            <mxPoint x="1497.56" y="1079.1599999999999" as="targetPoint" />
          </mxGeometry>
        </mxCell>
        <mxCell id="-Nn8rw7bGIWzdxT51rKh-252" value="" style="endArrow=none;html=1;rounded=0;fontSize=15;entryX=1;entryY=1;entryDx=0;entryDy=0;exitX=0;exitY=0;exitDx=0;exitDy=0;" parent="1" source="-Nn8rw7bGIWzdxT51rKh-214" target="-Nn8rw7bGIWzdxT51rKh-223" edge="1">
          <mxGeometry width="50" height="50" relative="1" as="geometry">
            <mxPoint x="1487.56" y="869.1599999999999" as="sourcePoint" />
            <mxPoint x="1537.56" y="819.1599999999999" as="targetPoint" />
          </mxGeometry>
        </mxCell>
        <mxCell id="-Nn8rw7bGIWzdxT51rKh-253" value="" style="endArrow=none;html=1;rounded=0;fontSize=15;entryX=0;entryY=1;entryDx=0;entryDy=0;exitX=1;exitY=0;exitDx=0;exitDy=0;" parent="1" source="-Nn8rw7bGIWzdxT51rKh-214" target="-Nn8rw7bGIWzdxT51rKh-219" edge="1">
          <mxGeometry width="50" height="50" relative="1" as="geometry">
            <mxPoint x="1767.56" y="919.1599999999999" as="sourcePoint" />
            <mxPoint x="1817.56" y="869.1599999999999" as="targetPoint" />
          </mxGeometry>
        </mxCell>
        <mxCell id="-Nn8rw7bGIWzdxT51rKh-254" value="" style="endArrow=none;html=1;rounded=0;fontSize=15;entryX=1;entryY=1;entryDx=0;entryDy=0;exitX=0;exitY=0;exitDx=0;exitDy=0;" parent="1" source="-Nn8rw7bGIWzdxT51rKh-216" target="-Nn8rw7bGIWzdxT51rKh-215" edge="1">
          <mxGeometry width="50" height="50" relative="1" as="geometry">
            <mxPoint x="1757.56" y="1119.1599999999999" as="sourcePoint" />
            <mxPoint x="1807.56" y="1069.1599999999999" as="targetPoint" />
          </mxGeometry>
        </mxCell>
        <mxCell id="k_OnpnmRZeKC0FUbFeda-4" value="DimSubject " style="swimlane;childLayout=stackLayout;horizontal=1;startSize=30;horizontalStack=0;rounded=1;fontSize=14;fontStyle=0;strokeWidth=2;resizeParent=0;resizeLast=1;shadow=0;dashed=0;align=center;fillColor=#008a00;fontColor=#ffffff;strokeColor=#005700;" parent="1" vertex="1">
          <mxGeometry x="1535.22" y="630" width="160.22" height="92.76" as="geometry" />
        </mxCell>
        <mxCell id="k_OnpnmRZeKC0FUbFeda-5" value="*SubjectID &#xa;&#xa;Name" style="align=left;strokeColor=none;fillColor=none;spacingLeft=4;fontSize=12;verticalAlign=top;resizable=0;rotatable=0;part=1;opacity=40;fontStyle=0" parent="k_OnpnmRZeKC0FUbFeda-4" vertex="1">
          <mxGeometry y="30" width="160.22" height="62.760000000000005" as="geometry" />
        </mxCell>
        <mxCell id="k_OnpnmRZeKC0FUbFeda-11" value="FactAttendance" style="swimlane;childLayout=stackLayout;horizontal=1;startSize=30;horizontalStack=0;rounded=1;fontSize=14;fontStyle=0;strokeWidth=2;resizeParent=0;resizeLast=1;shadow=0;dashed=0;align=center;fillColor=#0050ef;fontColor=#ffffff;strokeColor=#001DBC;" parent="1" vertex="1">
          <mxGeometry x="2400" y="880" width="160" height="157.76" as="geometry" />
        </mxCell>
        <mxCell id="k_OnpnmRZeKC0FUbFeda-12" value="*AttendanceID &#xa;*StudentID &#xa;*ClassID &#xa;*DateId&#xa;&#xa;Status " style="align=left;strokeColor=none;fillColor=none;spacingLeft=4;fontSize=12;verticalAlign=top;resizable=0;rotatable=0;part=1;opacity=40;fontStyle=1" parent="k_OnpnmRZeKC0FUbFeda-11" vertex="1">
          <mxGeometry y="30" width="160" height="127.75999999999999" as="geometry" />
        </mxCell>
        <mxCell id="k_OnpnmRZeKC0FUbFeda-19" value="" style="endArrow=none;html=1;rounded=0;fontSize=15;entryX=0.5;entryY=1;entryDx=0;entryDy=0;exitX=0.5;exitY=0;exitDx=0;exitDy=0;" parent="1" source="-Nn8rw7bGIWzdxT51rKh-214" target="k_OnpnmRZeKC0FUbFeda-5" edge="1">
          <mxGeometry width="50" height="50" relative="1" as="geometry">
            <mxPoint x="1665" y="893" as="sourcePoint" />
            <mxPoint x="1540" y="790" as="targetPoint" />
          </mxGeometry>
        </mxCell>
        <mxCell id="k_OnpnmRZeKC0FUbFeda-20" value="DimStudent " style="swimlane;childLayout=stackLayout;horizontal=1;startSize=30;horizontalStack=0;rounded=1;fontSize=14;fontStyle=0;strokeWidth=2;resizeParent=0;resizeLast=1;shadow=0;dashed=0;align=center;fillColor=#008a00;fontColor=#ffffff;strokeColor=#005700;" parent="1" vertex="1">
          <mxGeometry x="2160" y="679.1599999999999" width="160" height="120" as="geometry" />
        </mxCell>
        <mxCell id="k_OnpnmRZeKC0FUbFeda-21" value="*StudentID &#xa;*ClassId&#xa;Name &#xa;Surname &#xa;DateOfBirth" style="align=left;strokeColor=none;fillColor=none;spacingLeft=4;fontSize=12;verticalAlign=top;resizable=0;rotatable=0;part=1;opacity=40;fontStyle=0" parent="k_OnpnmRZeKC0FUbFeda-20" vertex="1">
          <mxGeometry y="30" width="160" height="90" as="geometry" />
        </mxCell>
        <mxCell id="k_OnpnmRZeKC0FUbFeda-22" value="DimClass " style="swimlane;childLayout=stackLayout;horizontal=1;startSize=30;horizontalStack=0;rounded=1;fontSize=14;fontStyle=0;strokeWidth=2;resizeParent=0;resizeLast=1;shadow=0;dashed=0;align=center;fillColor=#008a00;fontColor=#ffffff;strokeColor=#005700;" parent="1" vertex="1">
          <mxGeometry x="2640" y="659.1599999999999" width="160" height="140" as="geometry" />
        </mxCell>
        <mxCell id="k_OnpnmRZeKC0FUbFeda-23" value="*ClassID&#xa;&#xa;ClassNumber &#xa;AlphabeticIdentifier &#xa;" style="align=left;strokeColor=none;fillColor=none;spacingLeft=4;fontSize=12;verticalAlign=top;resizable=0;rotatable=0;part=1;opacity=40;fontStyle=0" parent="k_OnpnmRZeKC0FUbFeda-22" vertex="1">
          <mxGeometry y="30" width="160" height="110" as="geometry" />
        </mxCell>
        <mxCell id="k_OnpnmRZeKC0FUbFeda-26" value="DimDate" style="swimlane;childLayout=stackLayout;horizontal=1;startSize=30;horizontalStack=0;rounded=1;fontSize=14;fontStyle=0;strokeWidth=2;resizeParent=0;resizeLast=1;shadow=0;dashed=0;align=center;fillColor=#008a00;fontColor=#ffffff;strokeColor=#005700;" parent="1" vertex="1">
          <mxGeometry x="2400" y="1168.9999999999998" width="160" height="110.84" as="geometry" />
        </mxCell>
        <mxCell id="k_OnpnmRZeKC0FUbFeda-27" value="*DateId&#xa;&#xa;Day&#xa;Month&#xa;Year" style="align=left;strokeColor=none;fillColor=none;spacingLeft=4;fontSize=12;verticalAlign=top;resizable=0;rotatable=0;part=1;opacity=40;fontStyle=0" parent="k_OnpnmRZeKC0FUbFeda-26" vertex="1">
          <mxGeometry y="30" width="160" height="80.84" as="geometry" />
        </mxCell>
        <mxCell id="k_OnpnmRZeKC0FUbFeda-29" value="" style="endArrow=none;html=1;rounded=0;fontSize=15;entryX=0;entryY=1;entryDx=0;entryDy=0;exitX=1;exitY=0;exitDx=0;exitDy=0;" parent="1" source="k_OnpnmRZeKC0FUbFeda-11" target="k_OnpnmRZeKC0FUbFeda-23" edge="1">
          <mxGeometry width="50" height="50" relative="1" as="geometry">
            <mxPoint x="2640" y="923" as="sourcePoint" />
            <mxPoint x="2765" y="840" as="targetPoint" />
          </mxGeometry>
        </mxCell>
        <mxCell id="k_OnpnmRZeKC0FUbFeda-30" value="" style="endArrow=none;html=1;rounded=0;fontSize=15;entryX=1;entryY=1;entryDx=0;entryDy=0;exitX=0;exitY=0;exitDx=0;exitDy=0;" parent="1" source="k_OnpnmRZeKC0FUbFeda-11" target="k_OnpnmRZeKC0FUbFeda-21" edge="1">
          <mxGeometry width="50" height="50" relative="1" as="geometry">
            <mxPoint x="2200" y="953" as="sourcePoint" />
            <mxPoint x="2325" y="870" as="targetPoint" />
          </mxGeometry>
        </mxCell>
        <mxCell id="k_OnpnmRZeKC0FUbFeda-31" value="" style="endArrow=none;html=1;rounded=0;fontSize=15;entryX=0.5;entryY=1;entryDx=0;entryDy=0;exitX=0.5;exitY=0;exitDx=0;exitDy=0;" parent="1" source="k_OnpnmRZeKC0FUbFeda-26" target="k_OnpnmRZeKC0FUbFeda-12" edge="1">
          <mxGeometry width="50" height="50" relative="1" as="geometry">
            <mxPoint x="2610" y="1191" as="sourcePoint" />
            <mxPoint x="2530" y="1110" as="targetPoint" />
          </mxGeometry>
        </mxCell>
        <mxCell id="k_OnpnmRZeKC0FUbFeda-33" value="FactParentTeacherMeetings " style="swimlane;childLayout=stackLayout;horizontal=1;startSize=30;horizontalStack=0;rounded=1;fontSize=14;fontStyle=0;strokeWidth=2;resizeParent=0;resizeLast=1;shadow=0;dashed=0;align=center;fillColor=#0050ef;fontColor=#ffffff;strokeColor=#001DBC;" parent="1" vertex="1">
          <mxGeometry x="2010" y="1559" width="240" height="151" as="geometry" />
        </mxCell>
        <mxCell id="k_OnpnmRZeKC0FUbFeda-34" value="*MeetingID&#xa;*TeacherID &#xa;*StudentID &#xa;*ParentID&#xa;*DateId&#xa;&#xa;DurationInMinutes &#xa;Notes" style="align=left;strokeColor=none;fillColor=none;spacingLeft=4;fontSize=12;verticalAlign=top;resizable=0;rotatable=0;part=1;opacity=40;fontStyle=1" parent="k_OnpnmRZeKC0FUbFeda-33" vertex="1">
          <mxGeometry y="30" width="240" height="121" as="geometry" />
        </mxCell>
        <mxCell id="k_OnpnmRZeKC0FUbFeda-39" value="DimTeacher " style="swimlane;childLayout=stackLayout;horizontal=1;startSize=30;horizontalStack=0;rounded=1;fontSize=14;fontStyle=0;strokeWidth=2;resizeParent=0;resizeLast=1;shadow=0;dashed=0;align=center;fillColor=#008a00;fontColor=#ffffff;strokeColor=#005700;" parent="1" vertex="1">
          <mxGeometry x="2050" y="1350.0000000000002" width="160" height="105.84" as="geometry" />
        </mxCell>
        <mxCell id="k_OnpnmRZeKC0FUbFeda-40" value="*TeacherID&#xa;&#xa;Name&#xa;Surname &#xa;" style="align=left;strokeColor=none;fillColor=none;spacingLeft=4;fontSize=12;verticalAlign=top;resizable=0;rotatable=0;part=1;opacity=40;fontStyle=0" parent="k_OnpnmRZeKC0FUbFeda-39" vertex="1">
          <mxGeometry y="30" width="160" height="75.84" as="geometry" />
        </mxCell>
        <mxCell id="k_OnpnmRZeKC0FUbFeda-41" value="" style="endArrow=none;html=1;rounded=0;fontSize=15;entryX=0.5;entryY=1;entryDx=0;entryDy=0;exitX=0.5;exitY=0;exitDx=0;exitDy=0;" parent="1" source="k_OnpnmRZeKC0FUbFeda-33" target="k_OnpnmRZeKC0FUbFeda-40" edge="1">
          <mxGeometry width="50" height="50" relative="1" as="geometry">
            <mxPoint x="2065" y="1529" as="sourcePoint" />
            <mxPoint x="1930" y="1430" as="targetPoint" />
          </mxGeometry>
        </mxCell>
        <mxCell id="k_OnpnmRZeKC0FUbFeda-42" value="DimStudent " style="swimlane;childLayout=stackLayout;horizontal=1;startSize=30;horizontalStack=0;rounded=1;fontSize=14;fontStyle=0;strokeWidth=2;resizeParent=0;resizeLast=1;shadow=0;dashed=0;align=center;fillColor=#008a00;fontColor=#ffffff;strokeColor=#005700;" parent="1" vertex="1">
          <mxGeometry x="1730" y="1559" width="160" height="113.24" as="geometry" />
        </mxCell>
        <mxCell id="k_OnpnmRZeKC0FUbFeda-43" value="*StudentID &#xa;*ClassId&#xa;Name &#xa;Surname &#xa;DateOfBirth" style="align=left;strokeColor=none;fillColor=none;spacingLeft=4;fontSize=12;verticalAlign=top;resizable=0;rotatable=0;part=1;opacity=40;fontStyle=0" parent="k_OnpnmRZeKC0FUbFeda-42" vertex="1">
          <mxGeometry y="30" width="160" height="83.24" as="geometry" />
        </mxCell>
        <mxCell id="k_OnpnmRZeKC0FUbFeda-44" value="" style="endArrow=none;html=1;rounded=0;fontSize=15;entryX=0.996;entryY=0.381;entryDx=0;entryDy=0;exitX=0;exitY=0.25;exitDx=0;exitDy=0;entryPerimeter=0;" parent="1" source="k_OnpnmRZeKC0FUbFeda-34" target="k_OnpnmRZeKC0FUbFeda-43" edge="1">
          <mxGeometry width="50" height="50" relative="1" as="geometry">
            <mxPoint x="1990.22" y="1583" as="sourcePoint" />
            <mxPoint x="1990.22" y="1480" as="targetPoint" />
          </mxGeometry>
        </mxCell>
        <mxCell id="k_OnpnmRZeKC0FUbFeda-46" value="DimDate" style="swimlane;childLayout=stackLayout;horizontal=1;startSize=30;horizontalStack=0;rounded=1;fontSize=14;fontStyle=0;strokeWidth=2;resizeParent=0;resizeLast=1;shadow=0;dashed=0;align=center;fillColor=#008a00;fontColor=#ffffff;strokeColor=#005700;" parent="1" vertex="1">
          <mxGeometry x="2380" y="1558.9999999999998" width="160" height="110.84" as="geometry" />
        </mxCell>
        <mxCell id="k_OnpnmRZeKC0FUbFeda-47" value="*DateId&#xa;&#xa;Day&#xa;Month&#xa;Year" style="align=left;strokeColor=none;fillColor=none;spacingLeft=4;fontSize=12;verticalAlign=top;resizable=0;rotatable=0;part=1;opacity=40;fontStyle=0" parent="k_OnpnmRZeKC0FUbFeda-46" vertex="1">
          <mxGeometry y="30" width="160" height="80.84" as="geometry" />
        </mxCell>
        <mxCell id="k_OnpnmRZeKC0FUbFeda-48" value="" style="endArrow=none;html=1;rounded=0;fontSize=15;entryX=0;entryY=0.392;entryDx=0;entryDy=0;exitX=1;exitY=0.25;exitDx=0;exitDy=0;entryPerimeter=0;" parent="1" source="k_OnpnmRZeKC0FUbFeda-34" target="k_OnpnmRZeKC0FUbFeda-47" edge="1">
          <mxGeometry width="50" height="50" relative="1" as="geometry">
            <mxPoint x="2140" y="1569" as="sourcePoint" />
            <mxPoint x="2140" y="1466" as="targetPoint" />
          </mxGeometry>
        </mxCell>
        <mxCell id="k_OnpnmRZeKC0FUbFeda-49" value="DimParent " style="swimlane;childLayout=stackLayout;horizontal=1;startSize=30;horizontalStack=0;rounded=1;fontSize=14;fontStyle=0;strokeWidth=2;resizeParent=0;resizeLast=1;shadow=0;dashed=0;align=center;fillColor=#008a00;fontColor=#ffffff;strokeColor=#005700;" parent="1" vertex="1">
          <mxGeometry x="2050" y="1810" width="160" height="120" as="geometry" />
        </mxCell>
        <mxCell id="k_OnpnmRZeKC0FUbFeda-50" value="*ParentID &#xa;&#xa;Name &#xa;Surname &#xa;ContactInfo " style="align=left;strokeColor=none;fillColor=none;spacingLeft=4;fontSize=12;verticalAlign=top;resizable=0;rotatable=0;part=1;opacity=40;fontStyle=0" parent="k_OnpnmRZeKC0FUbFeda-49" vertex="1">
          <mxGeometry y="30" width="160" height="90" as="geometry" />
        </mxCell>
        <mxCell id="k_OnpnmRZeKC0FUbFeda-51" value="" style="endArrow=none;html=1;rounded=0;fontSize=15;entryX=0.5;entryY=1;entryDx=0;entryDy=0;exitX=0.5;exitY=0;exitDx=0;exitDy=0;" parent="1" source="k_OnpnmRZeKC0FUbFeda-49" target="k_OnpnmRZeKC0FUbFeda-34" edge="1">
          <mxGeometry width="50" height="50" relative="1" as="geometry">
            <mxPoint x="2350" y="1833" as="sourcePoint" />
            <mxPoint x="2350" y="1730" as="targetPoint" />
          </mxGeometry>
        </mxCell>
      </root>
    </mxGraphModel>
  </diagram>
</mxfile>
